<?xml version="1.0" encoding="utf-8"?>
<!-- Generator: Adobe Illustrator 27.1.1, SVG Export Plug-In . SVG Version: 6.00 Build 0)  -->
<svg version="1.1" id="Layer_1" xmlns="http://www.w3.org/2000/svg" xmlns:xlink="http://www.w3.org/1999/xlink" x="0px" y="0px"
	 viewBox="0 0 394 444.6" style="enable-background:new 0 0 394 444.6;" xml:space="preserve">
<style type="text/css">
	.st0{fill-rule:evenodd;clip-rule:evenodd;fill:#FFFFFF;}
</style>
<path class="st0" d="M326.6,96.2c-23.8-14.9-41-39.4-46.1-68.1c-0.5-2.7-0.8-5.5-1.1-8.3v-9.3h-72.6v288
	c-0.1,33.6-27.4,60.8-61,60.8c-9.9,0-19.2-2.3-27.4-6.5c-19.9-10-33.6-30.7-33.6-54.5c0-33.7,27.3-61,61-61c1.6,0,3.2,0.1,4.8,0.2
	c0.8,0.1,1.5,0.1,2.3,0.2c0.5,0.1,1.1,0.1,1.6,0.2c0.3,0,0.6,0.1,0.8,0.1c0.1,0,0.2,0,0.3,0c0.6,0.1,1.3,0.2,1.9,0.3
	c1.2,0.2,2.4,0.5,3.5,0.8c0.7,0.2,1.4,0.4,2.1,0.6c0.4,0.1,0.8,0.2,1.1,0.3v-73.7c-6.1-0.8-12.2-1.2-18.3-1.2
	c-73.7,0-133.4,59.7-133.4,133.3c0,46.1,23.5,86.8,59.1,110.7c0,0,0,0,0,0h0c1.3,0.9,2.7,1.8,4,2.6c0.7,0.4,1.4,0.8,2.1,1.2
	c1,0.6,2.1,1.2,3.1,1.8c1,0.6,2.1,1.2,3.2,1.7c0.7,0.4,1.4,0.7,2.1,1.1c1.4,0.7,2.9,1.4,4.4,2.1c7,3.2,14.3,5.8,21.8,7.7
	c0.8,0.2,1.6,0.4,2.4,0.6c0.5,0.1,1,0.2,1.5,0.3c1,0.2,2,0.4,3,0.7c0.5,0.1,1,0.2,1.5,0.3c0.8,0.2,1.6,0.3,2.5,0.4
	c0.4,0.1,0.8,0.1,1.2,0.2c1.2,0.2,2.5,0.4,3.7,0.5c0.8,0.1,1.7,0.2,2.5,0.3c1.2,0.1,2.5,0.3,3.8,0.4c0.4,0,0.8,0.1,1.3,0.1
	c0.8,0.1,1.7,0.1,2.5,0.2c2.5,0.1,5.1,0.2,7.7,0.2c73.6,0,133.3-59.7,133.3-133.3V151.4c28.3,20.2,63,32.2,100.5,32.2v-72.1
	C361.1,111.5,342.6,106.2,326.6,96.2z M40.6,358.3c0.5,1.5,1,3,1.6,4.5C41.7,361.3,41.1,359.8,40.6,358.3z M332.5,102.2
	c2.4,2.2,4.9,4.3,7.5,6.3C337.4,106.5,334.9,104.4,332.5,102.2z M345.7,112.5c-1.1-0.7-2.2-1.5-3.3-2.3
	C343.4,111,344.5,111.8,345.7,112.5c1.1,0.7,2.2,1.4,3.3,2.1C347.8,113.9,346.7,113.2,345.7,112.5z"/>
</svg>
